%TF.GenerationSoftware,KiCad,Pcbnew,9.0.0*%
%TF.CreationDate,2025-06-29T18:37:43-04:00*%
%TF.ProjectId,darksky-porch-light,6461726b-736b-4792-9d70-6f7263682d6c,rev?*%
%TF.SameCoordinates,Original*%
%TF.FileFunction,Soldermask,Top*%
%TF.FilePolarity,Negative*%
%FSLAX46Y46*%
G04 Gerber Fmt 4.6, Leading zero omitted, Abs format (unit mm)*
G04 Created by KiCad (PCBNEW 9.0.0) date 2025-06-29 18:37:43*
%MOMM*%
%LPD*%
G01*
G04 APERTURE LIST*
G04 Aperture macros list*
%AMRoundRect*
0 Rectangle with rounded corners*
0 $1 Rounding radius*
0 $2 $3 $4 $5 $6 $7 $8 $9 X,Y pos of 4 corners*
0 Add a 4 corners polygon primitive as box body*
4,1,4,$2,$3,$4,$5,$6,$7,$8,$9,$2,$3,0*
0 Add four circle primitives for the rounded corners*
1,1,$1+$1,$2,$3*
1,1,$1+$1,$4,$5*
1,1,$1+$1,$6,$7*
1,1,$1+$1,$8,$9*
0 Add four rect primitives between the rounded corners*
20,1,$1+$1,$2,$3,$4,$5,0*
20,1,$1+$1,$4,$5,$6,$7,0*
20,1,$1+$1,$6,$7,$8,$9,0*
20,1,$1+$1,$8,$9,$2,$3,0*%
%AMHorizOval*
0 Thick line with rounded ends*
0 $1 width*
0 $2 $3 position (X,Y) of the first rounded end (center of the circle)*
0 $4 $5 position (X,Y) of the second rounded end (center of the circle)*
0 Add line between two ends*
20,1,$1,$2,$3,$4,$5,0*
0 Add two circle primitives to create the rounded ends*
1,1,$1,$2,$3*
1,1,$1,$4,$5*%
%AMRotRect*
0 Rectangle, with rotation*
0 The origin of the aperture is its center*
0 $1 length*
0 $2 width*
0 $3 Rotation angle, in degrees counterclockwise*
0 Add horizontal line*
21,1,$1,$2,0,0,$3*%
%AMFreePoly0*
4,1,21,1.372500,0.787500,0.862500,0.787500,0.862500,0.532500,1.372500,0.532500,1.372500,0.127500,0.862500,0.127500,0.862500,-0.127500,1.372500,-0.127500,1.372500,-0.532500,0.862500,-0.532500,0.862500,-0.787500,1.372500,-0.787500,1.372500,-1.195000,0.612500,-1.195000,0.612500,-1.117500,-0.862500,-1.117500,-0.862500,1.117500,0.612500,1.117500,0.612500,1.195000,1.372500,1.195000,
1.372500,0.787500,1.372500,0.787500,$1*%
G04 Aperture macros list end*
%ADD10C,2.006600*%
%ADD11RoundRect,0.150000X0.159887X-0.697808X0.431779X-0.571023X-0.159887X0.697808X-0.431779X0.571023X0*%
%ADD12RoundRect,0.250000X0.238303X-1.102593X0.691457X-0.891284X-0.238303X1.102593X-0.691457X0.891284X0*%
%ADD13RoundRect,0.225000X0.225000X0.250000X-0.225000X0.250000X-0.225000X-0.250000X0.225000X-0.250000X0*%
%ADD14C,3.200000*%
%ADD15RoundRect,0.200000X-0.200000X-0.275000X0.200000X-0.275000X0.200000X0.275000X-0.200000X0.275000X0*%
%ADD16RoundRect,0.225000X-0.250000X0.225000X-0.250000X-0.225000X0.250000X-0.225000X0.250000X0.225000X0*%
%ADD17R,4.699000X3.429000*%
%ADD18RoundRect,0.200000X-0.275000X0.200000X-0.275000X-0.200000X0.275000X-0.200000X0.275000X0.200000X0*%
%ADD19R,1.600000X0.550000*%
%ADD20R,0.550000X1.600000*%
%ADD21RoundRect,0.237500X-0.287500X-0.237500X0.287500X-0.237500X0.287500X0.237500X-0.287500X0.237500X0*%
%ADD22RoundRect,0.150000X-0.825000X-0.150000X0.825000X-0.150000X0.825000X0.150000X-0.825000X0.150000X0*%
%ADD23RoundRect,0.200000X0.275000X-0.200000X0.275000X0.200000X-0.275000X0.200000X-0.275000X-0.200000X0*%
%ADD24RoundRect,0.225000X-0.225000X-0.250000X0.225000X-0.250000X0.225000X0.250000X-0.225000X0.250000X0*%
%ADD25RoundRect,0.150000X0.571023X-0.431779X0.697808X-0.159887X-0.571023X0.431779X-0.697808X0.159887X0*%
%ADD26RoundRect,0.250000X0.891284X-0.691457X1.102593X-0.238303X-0.891284X0.691457X-1.102593X0.238303X0*%
%ADD27RoundRect,0.200000X0.200000X0.275000X-0.200000X0.275000X-0.200000X-0.275000X0.200000X-0.275000X0*%
%ADD28RoundRect,0.250000X-0.550000X1.500000X-0.550000X-1.500000X0.550000X-1.500000X0.550000X1.500000X0*%
%ADD29RoundRect,0.150000X-0.150000X0.875000X-0.150000X-0.875000X0.150000X-0.875000X0.150000X0.875000X0*%
%ADD30R,0.990000X0.405000*%
%ADD31FreePoly0,180.000000*%
%ADD32R,4.240000X3.810000*%
%ADD33RotRect,5.100000X5.100000X145.000000*%
%ADD34C,17.800000*%
%ADD35RotRect,1.350000X1.350000X315.000000*%
%ADD36HorizOval,1.350000X0.000000X0.000000X0.000000X0.000000X0*%
%ADD37R,0.400000X3.200000*%
%ADD38RoundRect,0.150000X-0.714971X-0.036284X-0.637325X-0.326062X0.714971X0.036284X0.637325X0.326062X0*%
%ADD39RoundRect,0.250000X-1.127223X-0.043219X-0.997814X-0.526182X1.127223X0.043219X0.997814X0.526182X0*%
%ADD40RoundRect,0.225000X0.250000X-0.225000X0.250000X0.225000X-0.250000X0.225000X-0.250000X-0.225000X0*%
%ADD41C,1.500000*%
%ADD42R,1.700000X1.700000*%
%ADD43O,1.700000X1.700000*%
G04 APERTURE END LIST*
D10*
%TO.C,PS1*%
X135596800Y-76968100D03*
X135596800Y-87712300D03*
X174103200Y-87712300D03*
X174103200Y-79711300D03*
%TD*%
D11*
%TO.C,J3*%
X166985944Y-127444013D03*
X168118829Y-126915740D03*
X169251714Y-126387467D03*
X170384599Y-125859194D03*
X171517483Y-125330921D03*
X172650368Y-124802649D03*
D12*
X166661653Y-131126040D03*
X175679416Y-126920990D03*
%TD*%
D13*
%TO.C,C8*%
X145175000Y-95000000D03*
X143625000Y-95000000D03*
%TD*%
D14*
%TO.C,H4*%
X190000000Y-95000000D03*
%TD*%
D15*
%TO.C,R9*%
X182975000Y-94800000D03*
X184625000Y-94800000D03*
%TD*%
D16*
%TO.C,C2*%
X166400000Y-106825000D03*
X166400000Y-108375000D03*
%TD*%
D17*
%TO.C,TP6*%
X133600000Y-97800000D03*
%TD*%
D14*
%TO.C,H1*%
X155000000Y-60000000D03*
%TD*%
%TO.C,H2*%
X120000000Y-95000000D03*
%TD*%
D16*
%TO.C,C9*%
X147400000Y-98025000D03*
X147400000Y-99575000D03*
%TD*%
D18*
%TO.C,R14*%
X144200000Y-103175000D03*
X144200000Y-104825000D03*
%TD*%
D15*
%TO.C,R6*%
X170375000Y-114600000D03*
X172025000Y-114600000D03*
%TD*%
D17*
%TO.C,TP3*%
X124800000Y-75800000D03*
%TD*%
D19*
%TO.C,U2*%
X168750000Y-105000000D03*
X168750000Y-105800000D03*
X168750000Y-106600000D03*
X168750000Y-107400000D03*
X168750000Y-108200000D03*
X168750000Y-109000000D03*
X168750000Y-109800000D03*
X168750000Y-110600000D03*
D20*
X170200000Y-112050000D03*
X171000000Y-112050000D03*
X171800000Y-112050000D03*
X172600000Y-112050000D03*
X173400000Y-112050000D03*
X174200000Y-112050000D03*
X175000000Y-112050000D03*
X175800000Y-112050000D03*
D19*
X177250000Y-110600000D03*
X177250000Y-109800000D03*
X177250000Y-109000000D03*
X177250000Y-108200000D03*
X177250000Y-107400000D03*
X177250000Y-106600000D03*
X177250000Y-105800000D03*
X177250000Y-105000000D03*
D20*
X175800000Y-103550000D03*
X175000000Y-103550000D03*
X174200000Y-103550000D03*
X173400000Y-103550000D03*
X172600000Y-103550000D03*
X171800000Y-103550000D03*
X171000000Y-103550000D03*
X170200000Y-103550000D03*
%TD*%
D16*
%TO.C,C4*%
X162600000Y-130025000D03*
X162600000Y-131575000D03*
%TD*%
D21*
%TO.C,D13*%
X170525000Y-116600000D03*
X172275000Y-116600000D03*
%TD*%
D22*
%TO.C,U3*%
X139925000Y-96895000D03*
X139925000Y-98165000D03*
X139925000Y-99435000D03*
X139925000Y-100705000D03*
X144875000Y-100705000D03*
X144875000Y-99435000D03*
X144875000Y-98165000D03*
X144875000Y-96895000D03*
%TD*%
D13*
%TO.C,C1*%
X160375000Y-108600000D03*
X158825000Y-108600000D03*
%TD*%
D18*
%TO.C,R15*%
X147400000Y-104775000D03*
X147400000Y-106425000D03*
%TD*%
D16*
%TO.C,C7*%
X150000000Y-103225000D03*
X150000000Y-104775000D03*
%TD*%
D23*
%TO.C,R2*%
X162565000Y-124835000D03*
X162565000Y-123185000D03*
%TD*%
D24*
%TO.C,C14*%
X162625000Y-106000000D03*
X164175000Y-106000000D03*
%TD*%
%TO.C,C12*%
X119425000Y-81200000D03*
X120975000Y-81200000D03*
%TD*%
D25*
%TO.C,J2*%
X185415181Y-111798654D03*
X185943454Y-110665769D03*
X186471727Y-109532885D03*
X187000000Y-108400000D03*
D26*
X187533523Y-114827702D03*
X190682028Y-108075708D03*
%TD*%
D24*
%TO.C,C13*%
X183025000Y-96800000D03*
X184575000Y-96800000D03*
%TD*%
D27*
%TO.C,R17*%
X160225000Y-98400000D03*
X158575000Y-98400000D03*
%TD*%
D13*
%TO.C,C11*%
X186000000Y-101000000D03*
X184450000Y-101000000D03*
%TD*%
D17*
%TO.C,TP1*%
X155000000Y-95000000D03*
%TD*%
D15*
%TO.C,TH1*%
X182950000Y-98800000D03*
X184600000Y-98800000D03*
%TD*%
D28*
%TO.C,C6*%
X185600000Y-76500000D03*
X185600000Y-81900000D03*
%TD*%
D29*
%TO.C,U1*%
X162445000Y-111150000D03*
X161175000Y-111150000D03*
X159905000Y-111150000D03*
X158635000Y-111150000D03*
X157365000Y-111150000D03*
X156095000Y-111150000D03*
X154825000Y-111150000D03*
X153555000Y-111150000D03*
X153555000Y-120450000D03*
X154825000Y-120450000D03*
X156095000Y-120450000D03*
X157365000Y-120450000D03*
X158635000Y-120450000D03*
X159905000Y-120450000D03*
X161175000Y-120450000D03*
X162445000Y-120450000D03*
%TD*%
D15*
%TO.C,R10*%
X119375000Y-84400000D03*
X121025000Y-84400000D03*
%TD*%
%TO.C,R13*%
X175175000Y-114800000D03*
X176825000Y-114800000D03*
%TD*%
D23*
%TO.C,R1*%
X160600000Y-124825000D03*
X160600000Y-123175000D03*
%TD*%
D30*
%TO.C,Q1*%
X156435000Y-100990000D03*
X156435000Y-100330000D03*
X156435000Y-99670000D03*
X156435000Y-99010000D03*
D31*
X154442500Y-100000000D03*
%TD*%
D17*
%TO.C,TP2*%
X163400000Y-61600000D03*
%TD*%
D13*
%TO.C,C5*%
X176775000Y-116800000D03*
X175225000Y-116800000D03*
%TD*%
D15*
%TO.C,TH2*%
X162575000Y-108200000D03*
X164225000Y-108200000D03*
%TD*%
D27*
%TO.C,R12*%
X160425000Y-106000000D03*
X158775000Y-106000000D03*
%TD*%
D32*
%TO.C,F1*%
X147985000Y-61400000D03*
X141615000Y-61400000D03*
%TD*%
D33*
%TO.C,BT1*%
X148400000Y-124400000D03*
X127429708Y-109716442D03*
D34*
X137914854Y-117058221D03*
%TD*%
D27*
%TO.C,R11*%
X186050000Y-103200000D03*
X184400000Y-103200000D03*
%TD*%
D17*
%TO.C,TP5*%
X185500000Y-88100000D03*
%TD*%
D35*
%TO.C,J1*%
X182414214Y-119014214D03*
D36*
X181000000Y-117600000D03*
X181000000Y-120428428D03*
X179585787Y-119014214D03*
X179585787Y-121842641D03*
X178171573Y-120428428D03*
%TD*%
D37*
%TO.C,Y1*%
X166000000Y-115800000D03*
X167200000Y-115800000D03*
X168400000Y-115800000D03*
%TD*%
D38*
%TO.C,J5*%
X121101677Y-102710074D03*
X121425200Y-103917481D03*
X121748725Y-105124889D03*
X122072248Y-106332296D03*
D39*
X117531899Y-101751332D03*
X119460101Y-108947479D03*
%TD*%
D23*
%TO.C,R18*%
X147400000Y-103025000D03*
X147400000Y-101375000D03*
%TD*%
D14*
%TO.C,H3*%
X155000000Y-130000000D03*
%TD*%
D17*
%TO.C,TP4*%
X170100000Y-94900000D03*
%TD*%
D40*
%TO.C,C3*%
X179800000Y-109375000D03*
X179800000Y-107825000D03*
%TD*%
D23*
%TO.C,R5*%
X162600000Y-128425000D03*
X162600000Y-126775000D03*
%TD*%
D41*
%TO.C,R7*%
X118300000Y-87800000D03*
X121700000Y-87800000D03*
%TD*%
D42*
%TO.C,J4*%
X128200000Y-95260000D03*
D43*
X128200000Y-97800000D03*
X128200000Y-100340000D03*
%TD*%
D41*
%TO.C,R8*%
X188300000Y-102200000D03*
X191700000Y-102200000D03*
%TD*%
M02*
