M48
; DRILL file {KiCad 9.0.0} date 2025-06-29T18:37:40-0400
; FORMAT={-:-/ absolute / inch / decimal}
; #@! TF.CreationDate,2025-06-29T18:37:40-04:00
; #@! TF.GenerationSoftware,Kicad,Pcbnew,9.0.0
; #@! TF.FileFunction,Plated,1,2,PTH
FMAT,2
INCH
; #@! TA.AperFunction,Plated,PTH,ViaDrill
T1C0.0118
; #@! TA.AperFunction,Plated,PTH,ComponentDrill
T2C0.0118
; #@! TA.AperFunction,Plated,PTH,ComponentDrill
T3C0.0315
; #@! TA.AperFunction,Plated,PTH,ComponentDrill
T4C0.0394
; #@! TA.AperFunction,Plated,PTH,ComponentDrill
T5C0.0590
%
G90
G05
T1
X5.0059Y-3.6535
X5.3602Y-3.9823
X5.4094Y-4.0157
X5.4331Y-3.8425
X5.4409Y-3.9134
X5.5906Y-3.7008
X5.8012Y-4.3051
X5.8228Y-4.6086
X5.8602Y-4.0
X5.9528Y-4.6929
X5.9843Y-4.3701
X6.0455Y-4.4528
X6.2653Y-4.2269
X6.3189Y-5.1575
X6.4665Y-4.3091
X6.5118Y-4.126
X6.5394Y-4.3228
X6.5748Y-4.1535
X6.5827Y-4.4606
X6.5827Y-4.6555
X6.6575Y-4.4213
X6.7126Y-4.6437
X6.7244Y-4.2756
X6.7323Y-4.1929
X6.7638Y-4.6417
X6.775Y-4.1897
X6.7756Y-4.8484
X6.7765Y-4.2215
X6.7765Y-4.255
X6.8031Y-4.6417
X6.815Y-4.1535
X6.8583Y-4.6417
X6.9173Y-4.2283
X7.0236Y-4.5197
X7.0866Y-4.3583
X7.126Y-4.2047
X7.2618Y-3.9331
X7.3238Y-4.2037
X7.3819Y-4.4291
T2
X4.8346Y-2.9449
X4.8346Y-2.9843
X4.8346Y-3.0236
X4.8543Y-2.9646
X4.8543Y-3.0039
X4.874Y-2.9449
X4.874Y-2.9843
X4.874Y-3.0236
X4.8931Y-3.0039
X4.8937Y-2.9646
X4.9134Y-2.9449
X4.9134Y-2.9843
X4.9134Y-3.0236
X4.9331Y-2.9646
X4.9331Y-3.0039
X4.9528Y-2.9449
X4.9528Y-2.9843
X4.9528Y-3.0236
X4.9724Y-2.9646
X4.9724Y-3.0039
X4.9921Y-2.9449
X4.9921Y-2.9843
X4.9921Y-3.0236
X6.0236Y-3.7008
X6.0236Y-3.7402
X6.0236Y-3.7795
X6.0433Y-3.7205
X6.0433Y-3.7598
X6.063Y-3.7008
X6.063Y-3.7402
X6.063Y-3.7795
X6.0821Y-3.7598
X6.0827Y-3.7205
X6.1024Y-3.7008
X6.1024Y-3.7402
X6.1024Y-3.7795
X6.122Y-3.7205
X6.122Y-3.7598
X6.1417Y-3.7008
X6.1417Y-3.7402
X6.1417Y-3.7795
X6.1614Y-3.7205
X6.1614Y-3.7598
X6.1811Y-3.7008
X6.1811Y-3.7402
X6.1811Y-3.7795
X6.3543Y-2.3858
X6.3543Y-2.4252
X6.3543Y-2.4646
X6.374Y-2.4055
X6.374Y-2.4449
X6.3937Y-2.3858
X6.3937Y-2.4252
X6.3937Y-2.4646
X6.4128Y-2.4448
X6.4134Y-2.4055
X6.4331Y-2.3858
X6.4331Y-2.4252
X6.4331Y-2.4646
X6.4528Y-2.4055
X6.4528Y-2.4449
X6.4724Y-2.3858
X6.4724Y-2.4252
X6.4724Y-2.4646
X6.4921Y-2.4055
X6.4921Y-2.4449
X6.5118Y-2.3858
X6.5118Y-2.4252
X6.5118Y-2.4646
X6.6181Y-3.6969
X6.6181Y-3.7362
X6.6181Y-3.7756
X6.6378Y-3.7165
X6.6378Y-3.7559
X6.6575Y-3.6969
X6.6575Y-3.7362
X6.6575Y-3.7756
X6.6766Y-3.7558
X6.6772Y-3.7165
X6.6969Y-3.6969
X6.6969Y-3.7362
X6.6969Y-3.7756
X6.7165Y-3.7165
X6.7165Y-3.7559
X6.7362Y-3.6969
X6.7362Y-3.7362
X6.7362Y-3.7756
X6.7559Y-3.7165
X6.7559Y-3.7559
X6.7756Y-3.6969
X6.7756Y-3.7362
X6.7756Y-3.7756
X7.2244Y-3.4291
X7.2244Y-3.4685
X7.2244Y-3.5079
X7.2441Y-3.4488
X7.2441Y-3.4882
X7.2638Y-3.4291
X7.2638Y-3.4685
X7.2638Y-3.5079
X7.2829Y-3.4881
X7.2835Y-3.4488
X7.3031Y-3.4291
X7.3031Y-3.4685
X7.3031Y-3.5079
X7.3228Y-3.4488
X7.3228Y-3.4882
X7.3425Y-3.4291
X7.3425Y-3.4685
X7.3425Y-3.5079
X7.3622Y-3.4488
X7.3622Y-3.4882
X7.3819Y-3.4291
X7.3819Y-3.4685
X7.3819Y-3.5079
T3
X4.6575Y-3.4567
X4.7913Y-3.4567
X7.0146Y-4.7413
X7.0703Y-4.6856
X7.0703Y-4.797
X7.126Y-4.6299
X7.126Y-4.7413
X7.1817Y-4.6856
X7.4134Y-4.0236
X7.5472Y-4.0236
T4
X5.0472Y-3.7504
X5.0472Y-3.8504
X5.0472Y-3.9504
T5
X5.3385Y-3.0302
X5.3385Y-3.4532
X6.8545Y-3.1382
X6.8545Y-3.4532
M30
